<?xml version="1.0" encoding="utf-8"?>
<!-- Generator: Adobe Illustrator 16.0.0, SVG Export Plug-In . SVG Version: 6.00 Build 0)  -->
<!DOCTYPE svg PUBLIC "-//W3C//DTD SVG 1.1//EN" "http://www.w3.org/Graphics/SVG/1.1/DTD/svg11.dtd">
<svg version="1.1" id="Layer_1" xmlns="http://www.w3.org/2000/svg" xmlns:xlink="http://www.w3.org/1999/xlink" x="0px" y="0px"
	 width="155.396px" height="64px" viewBox="0 0 155.396 64" enable-background="new 0 0 155.396 64" xml:space="preserve">
<g>
	<path fill="#2E186A" d="M22.961,52.519c0,2.028-0.598,3.798-1.792,5.308c-1.127,1.397-2.637,2.435-4.53,3.11
		c-1.262,0.428-2.4,0.643-3.415,0.643c-1.037,0-2.197-0.226-3.482-0.676c-1.037-0.339-2.108-0.992-3.212-1.961
		c-1.263-1.104-2.018-2.153-2.265-3.145c-0.023-0.135-0.068-0.327-0.135-0.574c-0.249-0.947-0.372-1.928-0.372-2.941
		c0-2.39,0.653-5.094,1.961-8.114c0.924-2.164,2.367-4.835,4.328-8.013c-0.023-0.022-0.045-0.045-0.068-0.067
		c-1.533-0.022-2.75-0.226-3.651-0.608c-1.06-0.451-1.589-1.082-1.589-1.894c0-0.473,0.191-0.969,0.575-1.487
		s1.07-1.116,2.063-1.792c0.563-0.383,1.848-1.093,3.854-2.13c0.067-0.045,0.36-0.18,0.879-0.406
		c1.149-0.518,1.724-0.935,1.724-1.251c0-0.18-0.191-0.338-0.575-0.473c-0.293-0.09-0.901-0.169-1.826-0.237h-1.149
		c0.068,0-0.181,0.011-0.744,0.033c-0.022,0.068-0.057,0.179-0.102,0.335c-0.09,0.247-0.191,0.587-0.304,1.022
		s-0.372,0.911-0.777,1.424c-0.451,0.582-0.879,0.9-1.285,0.956c-0.406,0.056-0.575,0.083-0.507,0.083
		c-0.541,0-1.127-0.237-1.758-0.71c-0.631-0.473-0.947-0.935-0.947-1.386c0-0.474,0.338-0.901,1.014-1.285
		c0.608-0.338,1.307-0.62,2.096-0.845c0.135-0.045,0.569-0.124,1.302-0.237c0.732-0.112,1.166-0.169,1.301-0.169h1.657
		c0.135,0,0.451,0.034,0.947,0.101c0.157,0.023,0.394,0.057,0.71,0.102c0.698,0.158,1.228,0.293,1.589,0.406
		c0.698,0.226,1.127,0.451,1.285,0.676c0.068,0.067,0.09,0.158,0.068,0.271c-3.697,1.871-5.917,3.527-6.661,4.97
		c-0.181,0.383-0.27,0.688-0.27,0.913c0,0.226,0.056,0.507,0.169,0.845c0.135,0.429,0.417,0.71,0.845,0.846
		c0.36,0.067,0.732,0.135,1.116,0.202c0.495-0.924,1.262-1.623,2.299-2.096c0.856-0.406,1.746-0.608,2.671-0.608
		c0.495,0,1.002,0.101,1.521,0.304c0.676,0.271,1.015,0.62,1.015,1.048c0,0.135-0.045,0.293-0.135,0.473
		c-0.474,0.789-1.082,1.353-1.826,1.69c-0.271,0.136-0.564,0.237-0.879,0.305c-0.158,0.045-0.406,0.09-0.744,0.135
		c-0.181,0.046-0.372,0.079-0.575,0.102c-0.496,0-1.442,0.091-2.84,0.271c-0.045,0.022-0.113,0.124-0.203,0.305
		c-0.519,0.879-1.263,2.22-2.231,4.022c-1.24,2.569-2.13,4.947-2.671,7.134c-0.316,1.33-0.485,2.49-0.507,3.482
		c-0.023,0.045-0.04,0.146-0.051,0.304c-0.012,0.158-0.017,0.248-0.017,0.271c0,0.248,0.011,0.586,0.034,1.015
		c0.022,0.879,0.191,1.746,0.507,2.604c0.406,1.127,1.217,2.028,2.434,2.704c1.037,0.586,2.073,0.879,3.11,0.879
		c1.33,0,2.569-1.048,3.719-3.144c0.428-0.767,0.992-2.108,1.69-4.023c0.18-0.676,0.552-1.713,1.116-3.11
		c0.451-0.901,0.992-1.353,1.623-1.353c0.428,0,0.822,0.169,1.183,0.508C22.397,48.709,22.961,50.354,22.961,52.519z"/>
	<path fill="#2E186A" d="M36.315,27.061c0,0.563-0.192,1.026-0.575,1.386c-0.383,0.361-0.856,0.563-1.42,0.608
		c-0.09,0-0.248,0.012-0.473,0.034c1.285,1.285,1.927,2.468,1.927,3.55c0,0.45-0.102,0.845-0.304,1.183
		c-0.834,1.398-2.514,2.097-5.038,2.097c-0.767,0-1.578-0.091-2.434-0.271c-0.045,0-0.192-0.062-0.439-0.187
		c-0.249-0.123-0.429-0.186-0.541-0.186c0.225,0-0.079,0.102-0.913,0.305c-0.113,0.022-0.395,0.079-0.845,0.169
		c-1.082,0.202-2.074,0.304-2.975,0.304c-2.141,0-3.211-0.631-3.211-1.893c0-0.406,0.112-0.891,0.338-1.454
		c0.18-0.428,0.372-0.822,0.575-1.183c0.992-1.668,2.378-3.381,4.159-5.139c0.203-0.203,0.45-0.304,0.744-0.304
		c0.315,0,0.473,0.102,0.473,0.304c-0.022,0.023-0.09,0.113-0.203,0.271c-1.285,1.601-1.927,2.919-1.927,3.956
		c0,0.609,0.248,1.094,0.744,1.454c0.428,0.293,0.958,0.44,1.589,0.44c0.18,0,0.292-0.011,0.338-0.034
		c0.586-0.495,1.048-0.744,1.386-0.744c0.225,0,0.428,0.045,0.608,0.135c0.18,0.181,0.484,0.428,0.913,0.744h0.338
		c2.141,0,3.212-0.495,3.212-1.487c0-0.474-0.327-1.161-0.98-2.063c-0.293-0.406-1.048-1.217-2.265-2.434
		c-0.045-0.045-0.068-0.09-0.068-0.135c0-0.248,0.09-0.496,0.271-0.744c0.541-0.766,1.533-1.149,2.975-1.149
		c0.924,0,1.78,0.181,2.569,0.541C35.83,25.585,36.315,26.228,36.315,27.061z M33.509,28.718v-0.338
		c0-0.045-0.034-0.146-0.102-0.304c-0.181-0.495-0.586-1.02-1.217-1.572s-1.195-0.829-1.69-0.829c-0.36,0-0.563,0.169-0.608,0.507
		c0.833,0.496,1.431,0.868,1.792,1.116C32.359,27.771,32.968,28.244,33.509,28.718z"/>
	<path fill="#2E186A" d="M44.631,30.949c0,0.699-0.203,1.431-0.609,2.197c-0.992,1.871-2.637,2.806-4.936,2.806
		c-1.375,0-2.063-0.281-2.063-0.845c0-0.157,0.056-0.259,0.169-0.305c0.383-0.09,0.958-0.281,1.724-0.574
		c1.555-0.789,2.333-1.949,2.333-3.482c0-1.375-0.755-2.287-2.265-2.738c-0.361-0.068-0.924-0.169-1.69-0.304
		c-0.429-0.09-0.643-0.282-0.643-0.575c0-0.338,0.237-0.688,0.71-1.048c0.474-0.36,0.856-0.563,1.149-0.608
		c0.383-0.045,0.654-0.068,0.812-0.068c0.879,0,1.763,0.31,2.654,0.93c0.89,0.621,1.595,1.449,2.113,2.485
		C44.45,29.518,44.631,30.228,44.631,30.949z"/>
	<path fill="#2E186A" d="M67.35,44.235c0,0.969-0.169,1.837-0.507,2.604c-0.428,1.036-1.093,1.87-1.995,2.502
		c-0.676,0.495-1.375,0.873-2.096,1.133c-0.721,0.259-1.386,0.456-1.995,0.591c-0.992,0.203-1.702,0.305-2.13,0.305h-1.555
		c-0.09-0.022-0.203-0.034-0.338-0.034c-1.082-0.09-2.142-0.35-3.178-0.777c-1.601-0.631-3.021-1.611-4.26-2.941
		c-1.24-1.33-2.22-2.885-2.941-4.665c-0.631-1.511-1.037-3.077-1.217-4.699c-0.09-0.722-0.135-1.139-0.135-1.251v-1.894
		c0,0.113,0.011,0,0.034-0.338c0.068-0.924,0.203-1.826,0.406-2.705c0.09-0.383,0.237-0.833,0.439-1.352
		c0.383-0.901,0.873-1.696,1.471-2.383c0.597-0.688,1.324-1.29,2.181-1.809c0.586-0.36,1.161-0.653,1.724-0.879
		c1.533-0.563,2.75-0.845,3.651-0.845h2.197c0.203,0,0.552,0.045,1.048,0.135c0.135,0.023,0.473,0.135,1.014,0.338
		c1.42,0.519,2.524,1.195,3.313,2.029c0.135,0.135,0.259,0.293,0.372,0.473c0.113,0.181,0.237,0.384,0.372,0.608l1.792-0.541h0.237
		c0.022,0,0.034,0.022,0.034,0.067c0,0.045-0.09,0.124-0.271,0.237c-0.338,0.181-0.845,0.473-1.521,0.879
		c0.135,0.406,0.203,0.857,0.203,1.353c0,1.195-0.406,2.366-1.217,3.516c-0.856,1.239-1.983,2.141-3.38,2.704
		c-0.474,0.181-1.015,0.271-1.623,0.271c-2.187,0-3.595-1.487-4.226-4.462c-1.217,0.158-2.062,0.237-2.536,0.237
		c-0.383,0-1.071-0.124-2.062-0.372c-0.474-0.135-0.947-0.271-1.42-0.406h-0.068c-0.181,0.834-0.271,1.769-0.271,2.806
		c0,4.665,2.074,8.204,6.221,10.615c1.735,0.992,3.572,1.488,5.511,1.488c2.524,0,4.204-0.868,5.038-2.604
		c0.338-0.722,0.507-1.635,0.507-2.738c0-1.442-0.53-2.322-1.589-2.637c-0.203-0.046-0.406-0.068-0.608-0.068
		c-0.586,0-1.082,0.208-1.488,0.626c-0.406,0.417-0.789,0.839-1.149,1.268c-0.067-0.113-0.101-0.26-0.101-0.439
		c0-0.338,0.089-0.688,0.27-1.048c0.676-1.511,1.634-2.266,2.874-2.266c0.563,0,1.138,0.181,1.724,0.541
		c0.451,0.271,0.812,0.563,1.082,0.879c0.563,0.608,1.025,1.375,1.386,2.299C67.09,41.823,67.35,43.041,67.35,44.235z
		 M61.805,28.988v-0.102c-0.113-0.451-0.327-0.867-0.643-1.251c-0.812-1.036-2.13-1.667-3.956-1.893
		c-0.338-0.045-0.519-0.068-0.541-0.068H55.55c-0.203,0-0.597,0.057-1.183,0.169c-0.293,0.067-0.597,0.146-0.913,0.236
		c-0.316,0.09-0.755,0.271-1.319,0.541c-1.285,0.563-2.197,1.42-2.738,2.569c-0.181,0.361-0.271,0.598-0.271,0.71
		c0,0.541,0.766,0.812,2.299,0.812c1.803,0,4.666-0.428,8.587-1.285C60.329,29.36,60.926,29.214,61.805,28.988z M61.906,30.002
		l-0.034-0.102c-2.502,1.104-4.756,1.871-6.762,2.299c0.519,0.429,1.172,0.643,1.961,0.643c0.789,0,1.589-0.169,2.4-0.507
		c0.947-0.428,1.668-1.002,2.164-1.724C61.749,30.476,61.839,30.273,61.906,30.002z"/>
	<path fill="#2E186A" d="M67.079,16.547c0,0.834-0.316,1.55-0.946,2.146c-0.631,0.598-1.341,0.896-2.13,0.896
		c-0.271,0-0.575-0.056-0.913-0.169c-0.135-0.045-0.507-0.271-1.116-0.676c-0.969-0.63-1.555-1.228-1.758-1.792
		c-0.045-0.135-0.113-0.349-0.203-0.643c-0.27,0.834-0.405,1.927-0.405,3.279c0,0.812,0.056,1.5,0.169,2.063
		c0.09,0.383,0.181,0.71,0.271,0.98c0.158,0.428,0.338,0.823,0.541,1.183c0.338,0.519,0.744,0.992,1.217,1.42
		c0.473,0.429,0.71,0.665,0.71,0.71c0,0.541-0.383,0.812-1.149,0.812c-0.406,0-0.693-0.102-0.862-0.304
		c-0.169-0.203-0.524-0.823-1.065-1.859c-0.676-1.239-1.126-2.4-1.352-3.482c-0.045-0.18-0.102-0.461-0.169-0.845
		c-0.113-0.812-0.169-1.307-0.169-1.487V16.75l0.372-5.037l0.034-1.184c0-0.901-0.09-1.735-0.271-2.501
		c-0.292-1.33-0.946-2.243-1.96-2.739c-0.135-0.045-0.315-0.146-0.541-0.304c-0.022-0.022-0.034-0.09-0.034-0.203
		c0-0.18,0.113-0.406,0.338-0.676c0.902-1.037,1.916-1.555,3.042-1.555c0.586,0,1.178,0.276,1.775,0.828
		c0.598,0.553,0.975,1.178,1.133,1.876c0.045,0.135,0.09,0.316,0.135,0.541c0.09,0.519,0.135,1.06,0.135,1.623
		c0,0.744-0.102,1.702-0.304,2.874c-0.203,0.856-0.417,2.085-0.643,3.685c0,0.113-0.011,0.282-0.034,0.507
		c-0.022,0.226-0.034,0.35-0.034,0.372c0,0.473,0.056,0.8,0.169,0.98c0.022,0.022,0.124,0.079,0.304,0.169
		c0.181,0.09,0.372,0.135,0.575,0.135c0.473,0,0.93-0.439,1.369-1.318c0.439-0.879,0.874-1.319,1.302-1.319
		c0.406,0,0.867,0.249,1.386,0.744c0.428,0.405,0.698,0.755,0.811,1.048C66.988,15.747,67.079,16.164,67.079,16.547z"/>
	<path fill="#2E186A" d="M97.472,33.012c-0.045,0.022-0.102,0.033-0.169,0.033c-0.135,0-0.265-0.033-0.389-0.101
		c-0.124-0.068-0.367-0.36-0.727-0.879c-0.113-0.18-0.338-0.507-0.676-0.98c-1.69-2.209-3.753-3.313-6.187-3.313
		c-1.104,0-2.062,0.249-2.874,0.744c-0.992,0.586-1.488,1.386-1.488,2.4c0,0.902,0.406,1.77,1.217,2.604
		c0.022-0.022,0.034-0.067,0.034-0.136c0.271-1.577,1.33-2.366,3.178-2.366c1.397,0,2.828,0.406,4.293,1.217
		c1.307,0.721,1.961,1.432,1.961,2.129c0,0.722-0.722,1.218-2.164,1.488c-0.473,0.09-0.721,0.135-0.744,0.135h-2.907l-0.676-0.067
		c-0.271-0.022-0.563-0.046-0.879-0.067c-1.713-0.113-3.19-0.553-4.429-1.319c-1.533-0.946-2.299-2.197-2.299-3.752
		c0-0.518,0.113-1.126,0.338-1.826c0.405-1.239,1.171-2.287,2.299-3.144c1.126-0.856,2.333-1.285,3.617-1.285
		c0.721,0,1.454,0.135,2.198,0.406c1.735,0.631,3.516,2.142,5.342,4.53c0.271,0.338,0.541,0.722,0.811,1.149
		c0.879,1.353,1.319,2.085,1.319,2.198V33.012z M91.184,33.654c0-0.248-0.226-0.451-0.676-0.609
		c-0.36-0.135-0.699-0.203-1.014-0.203c-1.037,0-1.826,0.417-2.366,1.25l2.13,0.17C90.542,34.375,91.184,34.173,91.184,33.654z"/>
	<path fill="#2E186A" d="M115.83,28.785c0,2.322-0.958,4.361-2.874,6.119c-0.722,0.677-1.375,1.015-1.961,1.015
		c-0.383,0-0.575-0.124-0.575-0.372c0-0.157,0.271-0.519,0.812-1.082c1.104-1.172,1.656-2.659,1.656-4.462
		c0-1.938-0.631-2.908-1.893-2.908c-0.699,0-1.736,0.575-3.11,1.725c0.068,0,0.203-0.022,0.406-0.068l0.338-0.034
		c0.383,0,0.575,0.147,0.575,0.441c0,0.136-0.067,0.499-0.203,1.087c-0.203,0.838-0.592,1.67-1.167,2.497
		c-0.575,0.827-1.223,1.443-1.944,1.851c-0.203,0.114-0.575,0.317-1.116,0.612c-0.969,0.475-1.983,0.713-3.042,0.713
		c-0.857,0-1.623-0.271-2.299-0.812c-0.744-0.586-1.116-1.296-1.116-2.13c0-1.285,0.901-2.558,2.705-3.82
		c0.495-0.36,1.746-1.059,3.752-2.096c0.135-0.09,0.203-0.18,0.203-0.271c0-0.518-0.777-0.766-2.333-0.744
		c-0.181,0-0.417,0.022-0.71,0.067c-0.181,0.313-0.53,0.927-1.048,1.843c-0.699,1.229-1.398,1.843-2.096,1.843
		c-0.338,0-0.659-0.195-0.964-0.586c-0.304-0.392-0.456-0.767-0.456-1.125c0-0.715,0.558-1.358,1.673-1.929
		c1.116-0.57,2.361-0.855,3.736-0.855c1.353,0,2.355,0.269,3.009,0.807c0.271,0.225,0.406,0.393,0.406,0.504
		c-0.113,0.135-0.439,0.426-0.98,0.874c-1.51,1.279-2.265,2.344-2.265,3.196c0,0.74,0.529,1.11,1.589,1.11
		c1.51,0,2.592-0.552,3.246-1.657h-0.338c-0.181,0.022-0.304,0.034-0.372,0.034c-0.586,0-0.879-0.237-0.879-0.71
		c0-0.406,0.304-0.856,0.913-1.352c0.18-0.113,0.484-0.338,0.913-0.676c2.028-1.578,3.583-2.367,4.666-2.367
		c1.758,0,2.772,0.823,3.042,2.468C115.796,27.873,115.83,28.29,115.83,28.785z"/>
	<path fill="#2E186A" d="M118.805,16.547c0,0.834-0.316,1.55-0.946,2.146c-0.631,0.598-1.341,0.896-2.13,0.896
		c-0.271,0-0.575-0.056-0.913-0.169c-0.135-0.045-0.507-0.271-1.116-0.676c-0.969-0.63-1.555-1.228-1.758-1.792
		c-0.045-0.135-0.113-0.349-0.203-0.643c-0.27,0.834-0.405,1.927-0.405,3.279c0,0.812,0.056,1.5,0.169,2.063
		c0.09,0.383,0.181,0.71,0.271,0.98c0.158,0.428,0.338,0.823,0.541,1.183c0.338,0.519,0.744,0.992,1.217,1.42
		c0.473,0.429,0.71,0.665,0.71,0.71c0,0.541-0.383,0.812-1.149,0.812c-0.406,0-0.693-0.102-0.862-0.304
		c-0.169-0.203-0.524-0.823-1.065-1.859c-0.676-1.239-1.126-2.4-1.352-3.482c-0.045-0.18-0.102-0.461-0.169-0.845
		c-0.113-0.812-0.169-1.307-0.169-1.487V16.75l0.372-5.037l0.034-1.184c0-0.901-0.09-1.735-0.271-2.501
		c-0.292-1.33-0.946-2.243-1.96-2.739c-0.135-0.045-0.315-0.146-0.541-0.304c-0.022-0.022-0.034-0.09-0.034-0.203
		c0-0.18,0.113-0.406,0.338-0.676c0.902-1.037,1.916-1.555,3.042-1.555c0.586,0,1.178,0.276,1.775,0.828
		c0.598,0.553,0.975,1.178,1.133,1.876c0.045,0.135,0.09,0.316,0.135,0.541c0.09,0.519,0.135,1.06,0.135,1.623
		c0,0.744-0.102,1.702-0.304,2.874c-0.203,0.856-0.417,2.085-0.643,3.685c0,0.113-0.011,0.282-0.034,0.507
		c-0.022,0.226-0.034,0.35-0.034,0.372c0,0.473,0.056,0.8,0.169,0.98c0.022,0.022,0.124,0.079,0.304,0.169
		c0.181,0.09,0.372,0.135,0.575,0.135c0.473,0,0.93-0.439,1.369-1.318c0.439-0.879,0.874-1.319,1.302-1.319
		c0.406,0,0.867,0.249,1.386,0.744c0.428,0.405,0.698,0.755,0.811,1.048C118.714,15.747,118.805,16.164,118.805,16.547z"/>
	<path fill="#2E186A" d="M137.568,13.504c-0.361,0.158-0.913,0.304-1.657,0.439l-1.758,0.338c-1.758,0.473-3.562,1.206-5.409,2.197
		c-0.338,0.181-0.8,0.451-1.386,0.812c-0.384,0.293-0.812,0.598-1.285,0.913c-1.42,0.946-2.863,2.344-4.328,4.192
		c-1.307,1.623-2.197,2.998-2.671,4.125v0.034c1.172-1.15,2.953-1.725,5.342-1.725c0.698,0,1.251,0.034,1.657,0.101
		c2.614,0.427,3.921,1.483,3.921,3.168c0,1.236-0.721,2.64-2.164,4.213c-1.33,1.46-2.637,2.45-3.922,2.966
		c-0.766,0.314-1.555,0.472-2.366,0.472c-2.345,0-4.046-1.069-5.105-3.207c-0.045-0.135-0.125-0.416-0.237-0.844
		c-0.045-0.27-0.068-0.72-0.068-1.351v-0.877c0.068-0.54,0.214-1.215,0.44-2.025c0.495-1.778,1.465-3.59,2.907-5.436
		c1.262-1.62,2.727-3.06,4.395-4.32c2.998-2.25,6.164-3.601,9.5-4.051c1.353-0.18,2.513-0.27,3.482-0.27h0.71V13.504z
		 M126.378,31.05c0-1.69-0.71-3.054-2.13-4.091c-0.496-0.36-1.026-0.541-1.589-0.541c-0.586,0-1.094,0.191-1.521,0.575
		c-0.429,0.383-0.643,0.868-0.643,1.454c0,1.465,1.702,3.042,5.105,4.732C126.119,32.55,126.378,31.84,126.378,31.05z"/>
	<path fill="#2E186A" d="M149.841,30.273c0,1.24-0.338,2.35-1.014,3.331c-0.676,0.979-1.601,1.673-2.772,2.079
		c-0.586,0.202-1.127,0.304-1.623,0.304c-0.879,0-1.319-0.225-1.319-0.676c0-0.157,0.068-0.271,0.203-0.338
		c0.36-0.158,0.867-0.429,1.521-0.812c1.15-0.946,1.725-2.107,1.725-3.482c0-0.992-0.327-1.747-0.98-2.265
		c-0.654-0.519-1.488-0.778-2.502-0.778c-0.586,0-1.127,0.057-1.623,0.169c1.87,1.804,2.806,3.336,2.806,4.598
		c0,1.06-0.53,1.893-1.589,2.501c-0.834,0.474-1.848,0.744-3.042,0.812c-0.135,0-0.439,0.012-0.913,0.034l-0.744,0.067h-0.643
		c-0.946-0.022-1.859-0.18-2.738-0.474c-0.608-0.202-1.104-0.45-1.487-0.743c-0.406-0.383-1.003-0.925-1.792-1.623
		c-0.045-0.045-0.226-0.135-0.541-0.271c-0.203-0.112-0.304-0.315-0.304-0.608c0-0.09,0.022-0.191,0.067-0.304
		c0.135-0.113,0.575-0.36,1.319-0.744c1.69-0.879,4.315-2.175,7.877-3.888c-0.338-0.406-1.217-0.608-2.637-0.608
		c-0.316,0-0.553,0.011-0.71,0.034c-0.158,0.338-0.395,0.834-0.71,1.487c-0.564,1.149-1.274,1.724-2.13,1.724
		c-0.361,0-0.727-0.18-1.099-0.541c-0.372-0.36-0.558-0.721-0.558-1.082c0-0.428,0.304-0.856,0.913-1.285
		c1.015-0.698,2.49-1.048,4.429-1.048c1.059,0,1.758,0.067,2.096,0.203c0.067,0.022,0.275,0.141,0.625,0.355
		c0.35,0.214,0.535,0.321,0.558,0.321c0.045-0.022,0.191-0.113,0.439-0.271c1.217-0.721,2.445-1.082,3.685-1.082
		c1.442,0,2.671,0.457,3.685,1.369C149.333,27.653,149.841,28.831,149.841,30.273z M141.118,30.128c0-0.678-0.273-1.345-0.819-2.001
		l-8.314,4.028c0.608,0.503,1.804,0.755,3.585,0.755c1.15,0,2.21-0.146,3.18-0.441C140.329,31.995,141.118,31.214,141.118,30.128z"
		/>
	<path fill="#2E186A" d="M152.748,16.547c0,0.834-0.316,1.55-0.946,2.146c-0.631,0.598-1.341,0.896-2.13,0.896
		c-0.271,0-0.575-0.056-0.913-0.169c-0.135-0.045-0.507-0.271-1.116-0.676c-0.969-0.63-1.555-1.228-1.758-1.792
		c-0.045-0.135-0.113-0.349-0.203-0.643c-0.27,0.834-0.405,1.927-0.405,3.279c0,0.812,0.056,1.5,0.169,2.063
		c0.09,0.383,0.181,0.71,0.271,0.98c0.158,0.428,0.338,0.823,0.541,1.183c0.338,0.519,0.744,0.992,1.217,1.42
		c0.473,0.429,0.71,0.665,0.71,0.71c0,0.541-0.383,0.812-1.149,0.812c-0.406,0-0.693-0.102-0.862-0.304
		c-0.169-0.203-0.524-0.823-1.065-1.859c-0.676-1.239-1.126-2.4-1.352-3.482c-0.045-0.18-0.102-0.461-0.169-0.845
		c-0.113-0.812-0.169-1.307-0.169-1.487V16.75l0.372-5.037l0.034-1.184c0-0.901-0.09-1.735-0.271-2.501
		c-0.292-1.33-0.946-2.243-1.96-2.739c-0.135-0.045-0.315-0.146-0.541-0.304c-0.022-0.022-0.034-0.09-0.034-0.203
		c0-0.18,0.113-0.406,0.338-0.676c0.902-1.037,1.916-1.555,3.042-1.555c0.586,0,1.178,0.276,1.775,0.828
		c0.598,0.553,0.975,1.178,1.133,1.876c0.045,0.135,0.09,0.316,0.135,0.541c0.09,0.519,0.135,1.06,0.135,1.623
		c0,0.744-0.102,1.702-0.304,2.874c-0.203,0.856-0.417,2.085-0.643,3.685c0,0.113-0.011,0.282-0.034,0.507
		c-0.022,0.226-0.034,0.35-0.034,0.372c0,0.473,0.056,0.8,0.169,0.98c0.022,0.022,0.124,0.079,0.304,0.169
		c0.181,0.09,0.372,0.135,0.575,0.135c0.473,0,0.93-0.439,1.369-1.318c0.439-0.879,0.874-1.319,1.302-1.319
		c0.406,0,0.867,0.249,1.386,0.744c0.428,0.405,0.698,0.755,0.811,1.048C152.658,15.747,152.748,16.164,152.748,16.547z"/>
	<path fill="#2E186A" d="M145.817,24.229v-11.44h1.007c0.462,0.385,1.117,0.803,1.964,1.254c0.903,0.484,1.53,0.977,1.882,1.478
		c0.352,0.501,0.528,1.092,0.528,1.774c0,0.716-0.25,1.332-0.751,1.849c-0.5,0.518-1.153,0.776-1.956,0.776
		c-0.407,0-0.936-0.099-1.585-0.297v4.606H145.817z M146.906,18.468c0.418,0.187,0.831,0.28,1.238,0.28
		c0.462,0,0.839-0.148,1.131-0.445c0.292-0.297,0.437-0.666,0.437-1.106c0-0.561-0.162-1.042-0.487-1.444
		c-0.324-0.401-0.899-0.828-1.725-1.279c-0.198-0.099-0.396-0.209-0.594-0.33V18.468z"/>
</g>
</svg>
